<svg width="20" height="26" viewBox="0 0 20 26" fill="none" xmlns="http://www.w3.org/2000/svg">
<path d="M9.30087 19.5754C8.98871 19.5754 8.7871 19.603 8.66772 19.6304V23.6768C8.78734 23.7044 8.98002 23.7044 9.15411 23.7044C10.42 23.7133 11.2459 23.0164 11.2459 21.539C11.2549 20.2543 10.5027 19.5754 9.30087 19.5754Z" fill="#4F4F4F"/>
<path d="M3.89578 19.5572C3.61152 19.5572 3.41883 19.5846 3.31763 19.612V21.4381C3.4371 21.4655 3.584 21.4749 3.78509 21.4749C4.52888 21.4749 4.98742 21.0986 4.98742 20.4655C4.98747 19.8968 4.5927 19.5572 3.89578 19.5572Z" fill="#4F4F4F"/>
<path d="M19.1078 6.23055C19.1062 6.11131 19.0684 5.99354 18.9865 5.90045L13.9733 0.174371C13.9723 0.172767 13.9704 0.172247 13.9694 0.170784C13.9395 0.137411 13.9052 0.109891 13.8683 0.085628C13.8573 0.0785474 13.8459 0.0721749 13.8344 0.0657079C13.8025 0.0484313 13.7692 0.0340813 13.7339 0.023602C13.7249 0.0208642 13.7159 0.0169934 13.7065 0.0145388C13.6687 0.00538125 13.6294 0 13.59 0H1.26961C0.707501 0 0.25 0.457548 0.25 1.01965V24.9804C0.25 25.5427 0.707501 26 1.26961 26H18.0931C18.6552 26 19.1128 25.5427 19.1128 24.9804V6.28766C19.1127 6.2685 19.1097 6.24971 19.1078 6.23055ZM5.80407 21.8967C5.32712 22.3462 4.62057 22.5483 3.79464 22.5483C3.6114 22.5483 3.44576 22.5389 3.31779 22.521V24.732H1.93235V18.6302C2.36337 18.5571 2.96928 18.5018 3.82273 18.5018C4.685 18.5018 5.29983 18.667 5.71259 18.9971C6.10735 19.3093 6.37273 19.8231 6.37273 20.4285C6.37273 21.0343 6.17136 21.5481 5.80407 21.8967ZM11.7041 23.9981C11.0534 24.5393 10.0625 24.7962 8.8517 24.7962C8.12669 24.7962 7.61316 24.7504 7.2639 24.7046V18.6302C7.77781 18.5481 8.44792 18.5018 9.15423 18.5018C10.328 18.5018 11.0898 18.7129 11.6865 19.1624C12.3289 19.6396 12.7327 20.4011 12.7327 21.4929C12.7322 22.6768 12.301 23.4933 11.7041 23.9981ZM17.4309 19.6947H15.0542V21.1076H17.2746V22.2457H15.0542V24.732H13.6507V18.5481H17.4309V19.6947ZM1.26961 17.3122V1.01965H13.0802V6.2364C13.0802 6.51778 13.3082 6.7462 13.59 6.7462H18.0931L18.0936 17.3122H1.26961Z" fill="#4F4F4F"/>
<path d="M14.9117 10.9577C14.8818 10.9549 14.1634 10.8893 13.0606 10.8893C12.7152 10.8893 12.3672 10.8961 12.0236 10.909C9.84596 9.27482 8.06231 7.63934 7.10742 6.72278C7.12484 6.62186 7.13683 6.54208 7.1424 6.48081C7.26834 5.15131 7.12833 4.25378 6.72766 3.81308C6.4653 3.52509 6.07998 3.42926 5.67818 3.53901C5.42866 3.60439 4.96677 3.84645 4.81888 4.33922C4.6556 4.88376 4.91805 5.54466 5.60756 6.31107C5.61851 6.32268 5.8525 6.56786 6.27767 6.9833C6.00134 8.3009 5.27798 11.1442 4.92702 12.5096C4.1027 12.9501 3.41588 13.4806 2.88417 14.0893L2.84934 14.1291L2.82682 14.177C2.77206 14.292 2.51032 14.8891 2.70683 15.3688C2.79656 15.5869 2.9647 15.7462 3.19312 15.8298L3.25435 15.8463C3.25435 15.8463 3.30958 15.8583 3.40667 15.8583C3.83198 15.8583 4.8818 15.6347 5.4449 13.5597L5.58131 13.0339C7.54684 12.0785 10.0038 11.7703 11.7846 11.6845C12.7007 12.3638 13.6122 12.9878 14.4955 13.5405L14.5243 13.5572C14.5671 13.5791 14.9544 13.7703 15.408 13.7707C16.0562 13.7707 16.5297 13.3729 16.7059 12.6797L16.7148 12.6323C16.7641 12.2361 16.6646 11.879 16.4271 11.5998C15.9268 11.0118 14.9953 10.9605 14.9117 10.9577ZM3.42253 15.0932C3.41857 15.0885 3.41668 15.084 3.4147 15.079C3.3724 14.9772 3.42315 14.7302 3.49783 14.5493C3.81843 14.1908 4.20329 13.8618 4.64738 13.5655C4.2149 14.9655 3.58596 15.0865 3.42253 15.0932ZM6.16848 5.79168C5.50432 5.05237 5.51429 4.68583 5.55002 4.56244C5.60865 4.35621 5.87327 4.27828 5.87554 4.27757C6.00884 4.24132 6.08975 4.24844 6.16178 4.32751C6.32468 4.50646 6.4646 5.04652 6.40932 6.03714C6.25251 5.87958 6.16848 5.79168 6.16848 5.79168ZM5.82531 12.0874L5.83678 12.0436L5.83527 12.0441C6.16782 10.7416 6.64742 8.83445 6.92318 7.60937L6.93314 7.61885L6.93413 7.613C7.82629 8.45314 9.19426 9.682 10.8322 10.9601L10.8138 10.9608L10.8409 10.9813C9.29787 11.1116 7.45494 11.4158 5.82531 12.0874ZM15.9587 12.5147C15.8412 12.9464 15.6152 13.0054 15.4081 13.0054C15.1676 13.0054 14.9361 12.9054 14.8833 12.8812C14.2819 12.5042 13.6666 12.0935 13.0457 11.654C13.0507 11.654 13.0552 11.654 13.0606 11.654C14.125 11.654 14.834 11.7186 14.8619 11.7206C15.0396 11.7272 15.6022 11.8103 15.8446 12.0953C15.9397 12.207 15.9761 12.3406 15.9587 12.5147Z" fill="#4F4F4F"/>
</svg>
