<svg width="10" height="10" viewBox="0 0 10 10" fill="none" xmlns="http://www.w3.org/2000/svg">
<path fill-rule="evenodd" clip-rule="evenodd" d="M8.61467 5C8.61467 5.17 8.59967 5.33 8.57967 5.49L9.63467 6.315C9.72967 6.39 9.75467 6.525 9.69467 6.635L8.69467 8.365C8.63467 8.475 8.50467 8.52 8.38967 8.475L7.14467 7.975C6.88467 8.17 6.60467 8.34 6.29967 8.465L6.10967 9.79C6.09467 9.91 5.98967 10 5.86467 10H3.86467C3.73967 10 3.63467 9.91 3.61967 9.79L3.42967 8.465C3.12467 8.34 2.84467 8.175 2.58467 7.975L1.33967 8.475C1.22967 8.515 1.09467 8.475 1.03467 8.365L0.0346658 6.635C-0.0253342 6.525 -0.000334197 6.39 0.0946658 6.315L1.14967 5.49C1.12967 5.33 1.11467 5.165 1.11467 5C1.11467 4.835 1.12967 4.67 1.14967 4.51L0.0946658 3.685C-0.000334197 3.61 -0.0303342 3.475 0.0346658 3.365L1.03467 1.635C1.09467 1.525 1.22467 1.48 1.33967 1.525L2.58467 2.025C2.84467 1.83 3.12467 1.66 3.42967 1.535L3.61967 0.21C3.63467 0.09 3.73967 0 3.86467 0H5.86467C5.98967 0 6.09467 0.09 6.10967 0.21L6.29967 1.535C6.60467 1.66 6.88467 1.825 7.14467 2.025L8.38967 1.525C8.49967 1.485 8.63467 1.525 8.69467 1.635L9.69467 3.365C9.75467 3.475 9.72967 3.61 9.63467 3.685L8.57967 4.51C8.59967 4.67 8.61467 4.83 8.61467 5ZM3.11469 5C3.11469 5.965 3.89969 6.75 4.86469 6.75C5.82969 6.75 6.61469 5.965 6.61469 5C6.61469 4.035 5.82969 3.25 4.86469 3.25C3.89969 3.25 3.11469 4.035 3.11469 5Z" fill="#333333"/>
</svg>
